<svg xmlns="http://www.w3.org/2000/svg" width="28" height="28" viewBox="0 0 28 28">
    <path fill="#43414F" fill-rule="nonzero" d="M24.889 0H3.11A3.11 3.11 0 0 0 0 3.111V24.89A3.11 3.11 0 0 0 3.111 28H24.89A3.11 3.11 0 0 0 28 24.889V3.11A3.11 3.11 0 0 0 24.889 0zM9.333 21.778H5.41v-10.89h3.924v10.89zM7.302 8.893c-1.2 0-2-.8-2-1.867S6.1 5.16 7.433 5.16c1.2 0 2 .8 2 1.866 0 1.068-.8 1.867-2.132 1.867zm16.031 12.885h-3.798v-5.952c0-1.646-1.013-2.025-1.393-2.025-.38 0-1.645.253-1.645 2.025v5.952h-3.925v-10.89h3.925v1.52c.505-.886 1.518-1.52 3.417-1.52 1.9 0 3.42 1.52 3.42 4.938v5.952z"/>
</svg>
