<svg xmlns="http://www.w3.org/2000/svg" width="28" height="14" viewBox="0 0 28 14">
    <g fill="none" fill-rule="evenodd">
        <path d="M0-7h28v28H0z"/>
        <path fill="#43414F" fill-rule="nonzero" d="M6.364.5C2.85.5 0 3.41 0 7s2.85 6.5 6.364 6.5h5.09v-2.6h-5.09c-2.11 0-3.819-1.746-3.819-3.9s1.71-3.9 3.819-3.9h5.09V.5h-5.09zm10.181 0v2.6h5.091c2.11 0 3.819 1.746 3.819 3.9s-1.71 3.9-3.819 3.9h-5.09v2.6h5.09C25.15 13.5 28 10.59 28 7S25.15.5 21.636.5h-5.09zM7.636 5.7v2.6h12.728V5.7H7.636z"/>
    </g>
</svg>
