<svg xmlns="http://www.w3.org/2000/svg" width="28" height="24" viewBox="0 0 28 24">
    <g fill="none" fill-rule="evenodd">
        <path d="M0-2h28v28H0z"/>
        <path fill="#43414F" fill-rule="nonzero" d="M28 3.222c-1.03.463-2.138.774-3.3.915A5.806 5.806 0 0 0 27.226.925a11.443 11.443 0 0 1-3.649 1.41A5.707 5.707 0 0 0 19.385.5c-3.173 0-5.744 2.6-5.744 5.806 0 .455.052.9.148 1.323C9.016 7.387 4.784 5.075 1.95 1.56a5.84 5.84 0 0 0-.776 2.92 5.819 5.819 0 0 0 2.554 4.833 5.686 5.686 0 0 1-2.602-.726v.073c0 2.814 1.98 5.16 4.608 5.693a5.689 5.689 0 0 1-2.594.1c.731 2.307 2.853 3.986 5.366 4.033A11.443 11.443 0 0 1 0 20.892 16.136 16.136 0 0 0 8.806 23.5c10.566 0 16.342-8.848 16.342-16.52a17.4 17.4 0 0 0-.016-.752A11.76 11.76 0 0 0 28 3.222z"/>
    </g>
</svg>
