<?xml version="1.0" encoding="utf-8"?>
<!-- Generator: Adobe Illustrator 24.3.0, SVG Export Plug-In . SVG Version: 6.00 Build 0)  -->
<svg version="1.1" id="Layer_1" xmlns="http://www.w3.org/2000/svg" xmlns:xlink="http://www.w3.org/1999/xlink" x="0px" y="0px"
	 viewBox="0 0 76 76" style="enable-background:new 0 0 76 76;" xml:space="preserve">
<style type="text/css">
	.st0{fill:#C7D5FA;}
	.st1{fill:#171664;}
	.st2{fill:#7084FF;}
	.st3{fill:#5656BC;}
	.st4{fill:#839CFF;}
	.st5{fill:#F5F9FF;}
	.st6{fill:#FFFFFF;}
	.st7{fill:#0C1B55;}
	.st8{fill:#FAFAFA;}
	.st9{fill:#A4C2F5;}
	.st10{fill:#8A8A8A;}
	.st11{enable-background:new    ;}
	.st12{clip-path:url(#SVGID_2_);enable-background:new    ;}
	.st13{fill:#D8D8D8;}
	.st14{fill:#DFDFDF;}
	.st15{fill:#E5E5E5;}
	.st16{fill:#EBEBEB;}
	.st17{fill:#F1F1F1;}
	.st18{fill:#677A97;}
	.st19{fill:#98B9FA;}
	.st20{clip-path:url(#SVGID_4_);enable-background:new    ;}
	.st21{fill:#A0BDEF;}
	.st22{fill:#9CB7E9;}
	.st23{fill:#C7D5FF;}
	.st24{fill:#107CA5;}
	.st25{fill:#15A4C7;}
	.st26{opacity:0.37;}
	.st27{fill:#839DD7;}
	.st28{fill:#EBF0F9;}
	.st29{fill:#6B66E4;}
	.st30{fill:none;stroke:#6B66E4;stroke-width:3;stroke-linecap:round;stroke-linejoin:round;stroke-miterlimit:10;}
	.st31{fill:#6B66E4;stroke:#6B66E4;stroke-width:3;stroke-linecap:round;stroke-linejoin:round;stroke-miterlimit:10;}
	.st32{fill:#1EBDAA;stroke:#6B66E4;stroke-width:2.3649;stroke-linecap:round;stroke-linejoin:round;stroke-miterlimit:10;}
	.st33{fill:#F9F9F9;stroke:#15A4C7;stroke-width:3;stroke-miterlimit:10;}
	.st34{fill:#7A7A84;}
	.st35{fill:#F9F9F9;stroke:#1EBDAA;stroke-width:3;stroke-miterlimit:10;}
	.st36{fill:#1EBDAA;}
	.st37{fill:#F9F9F9;stroke:#1EBDAA;stroke-width:3;stroke-linejoin:round;stroke-miterlimit:10;}
	.st38{fill:none;stroke:#FFFFFF;stroke-width:3;stroke-linecap:round;stroke-linejoin:round;stroke-miterlimit:10;}
	.st39{fill:none;stroke:#7A7A84;stroke-width:3;stroke-linecap:round;stroke-linejoin:round;stroke-miterlimit:10;}
	.st40{fill:#F9F9F9;stroke:#1EBDAA;stroke-width:3;stroke-linecap:round;stroke-linejoin:round;stroke-miterlimit:10;}
</style>
<g>
	<path class="st34" d="M67.35,20.78c0-0.01,0-0.01,0-0.02c0-0.15-0.03-0.3-0.07-0.44c-0.01-0.02,0-0.03-0.01-0.05
		c0-0.01-0.01-0.02-0.02-0.04c-0.05-0.14-0.12-0.28-0.21-0.4c-0.02-0.02-0.03-0.04-0.05-0.06c-0.08-0.11-0.18-0.2-0.29-0.29
		c-0.02-0.01-0.03-0.03-0.05-0.04c-0.12-0.08-0.25-0.15-0.39-0.2c-0.03-0.01-0.06-0.02-0.09-0.03c-0.15-0.04-0.3-0.07-0.46-0.07
		H26.08c0.23,0.98,0.37,2,0.37,3.05c0,0.08-0.01,0.16-0.01,0.23h34.35L38.52,39.15L24.68,28.76c-0.55,0.95-1.22,1.83-1.98,2.62
		l14.83,11.14c0.29,0.22,0.64,0.33,0.98,0.33s0.69-0.11,0.98-0.33l24.57-18.45v31.63H12.96V35.33c-1.14-0.03-2.23-0.2-3.28-0.5
		v22.51c0,0.91,0.73,1.64,1.64,1.64h54.39c0.91,0,1.64-0.73,1.64-1.64L67.35,20.78C67.35,20.78,67.35,20.78,67.35,20.78z"/>
</g>
<g>
	<path class="st36" d="M13.3,9.03c-7.25,0-13.16,5.9-13.16,13.16c0,7.25,5.9,13.16,13.16,13.16s13.16-5.9,13.16-13.16
		C26.45,14.94,20.55,9.03,13.3,9.03z M13.3,32.07c-5.44,0-9.87-4.43-9.87-9.88c0-5.44,4.43-9.87,9.87-9.87s9.87,4.43,9.87,9.87
		C23.17,27.64,18.74,32.07,13.3,32.07z"/>
	<path class="st36" d="M13.3,15.01c-0.91,0-1.64,0.73-1.64,1.64v6.07c0,0.91,0.73,1.64,1.64,1.64s1.64-0.73,1.64-1.64v-6.07
		C14.94,15.74,14.2,15.01,13.3,15.01z"/>
	<path class="st36" d="M14.81,26.71c-0.04-0.11-0.1-0.2-0.15-0.28c-0.05-0.1-0.13-0.17-0.21-0.25c-0.08-0.08-0.15-0.14-0.24-0.21
		c-0.1-0.05-0.19-0.11-0.28-0.15c-0.1-0.03-0.21-0.07-0.31-0.09c-0.54-0.11-1.1,0.07-1.49,0.45c-0.08,0.08-0.14,0.15-0.2,0.25
		c-0.07,0.09-0.11,0.18-0.15,0.28c-0.04,0.1-0.08,0.2-0.1,0.31c-0.02,0.1-0.03,0.21-0.03,0.32c0,0.11,0.01,0.22,0.03,0.32
		c0.02,0.11,0.05,0.21,0.1,0.31c0.04,0.1,0.09,0.2,0.15,0.28c0.05,0.09,0.12,0.18,0.2,0.25c0.31,0.31,0.73,0.48,1.16,0.48
		c0.44,0,0.86-0.17,1.16-0.48c0.08-0.08,0.15-0.16,0.21-0.25c0.05-0.09,0.11-0.19,0.15-0.28c0.04-0.1,0.08-0.2,0.09-0.31
		c0.02-0.1,0.03-0.21,0.03-0.32c0-0.11-0.01-0.22-0.03-0.32C14.89,26.91,14.86,26.81,14.81,26.71z"/>
</g>
</svg>
